<svg class="circuit-svg" viewBox="0 0 560 180" xmlns="http://www.w3.org/2000/svg"><path d="M 277.38,58.18 L 332.42,89.07 L 333.36,91.35 L 332.96,93.47 L 331.32,96.29 L 319.60,104.12 L 315.95,107.66 L 314.75,114.04 L 315.95,120.80 L 314.80,129.14 L 311.98,134.48 L 301.36,142.13 L 289.27,145.88 L 281.41,147.46 L 269.82,147.70 L 260.73,146.23 L 250.08,141.94 L 196.06,112.81 L 188.31,108.60 L 184.34,107.98 L 179.78,107.66 L 175.23,108.20 L 169.43,109.83 L 164.55,112.30 L 159.56,115.92 L 154.36,119.03 L 147.55,120.05 L 141.40,119.54 L 134.81,116.67 L 128.61,111.68 L 122.98,106.67 L 116.65,103.85 L 110.13,102.67 L 102.27,103.91 L 95.06,105.94 L 89.00,108.52 L 84.52,112.25 L 80.25,118.26 L 78.59,124.64 L 78.78,129.98 L 80.09,133.57 L 82.26,136.04 L 86.69,138.21 L 92.03,138.21 L 98.63,136.90 L 106.00,136.92 L 121.21,139.82 L 149.05,144.89 L 177.83,144.14 L 221.76,142.50 L 233.91,145.96 L 248.93,150.79 L 261.02,154.62 L 277.28,159.26 L 294.17,161.81 L 311.15,162.00 L 328.99,159.37 L 345.27,154.22 L 382.47,142.02 L 404.06,134.62 L 414.47,130.46 L 441.07,117.75 L 455.39,109.51 L 458.26,106.03 L 457.32,103.13 L 454.72,100.88 L 448.15,97.31 L 443.57,94.22 L 441.07,89.72 L 440.53,85.02 L 442.01,79.31 L 445.55,76.12 L 449.71,74.62 L 462.02,75.29 L 468.16,74.54 L 470.87,72.96 L 475.00,69.33 L 481.41,59.04 L 480.98,56.78 L 477.87,55.66 L 475.05,53.78 L 474.95,49.94 L 480.04,35.17 L 479.64,32.64 L 477.33,30.95 L 464.51,29.91 L 279.37,24.01 L 131.75,18.00 L 127.43,19.02 L 126.52,22.08 L 127.99,25.89 L 133.12,29.96 L 141.08,35.41 L 149.64,39.54 L 156.61,41.12 L 162.75,40.66 L 170.26,38.22 L 187.78,30.82 L 197.59,28.46 L 209.66,27.52 L 221.57,29.02 L 232.81,33.23 L 277.38,58.18" fill="none" stroke="currentColor" stroke-width="4" stroke-linecap="round" stroke-linejoin="round"/></svg>